<?xml version="1.0" encoding="UTF-8" standalone="no"?>
<svg
   viewBox="0 0 200 200.00001"
   width="200"
   height="200"
   version="1.1"
   id="svg58"
   sodipodi:docname="logo.svg"
   inkscape:version="1.1.2 (b8e25be833, 2022-02-05)"
   xmlns:inkscape="http://www.inkscape.org/namespaces/inkscape"
   xmlns:sodipodi="http://sodipodi.sourceforge.net/DTD/sodipodi-0.dtd"
   xmlns="http://www.w3.org/2000/svg"
   xmlns:svg="http://www.w3.org/2000/svg">
  <sodipodi:namedview
     id="namedview60"
     pagecolor="#ffffff"
     bordercolor="#666666"
     borderopacity="1.0"
     inkscape:pageshadow="2"
     inkscape:pageopacity="0.0"
     inkscape:pagecheckerboard="0"
     showgrid="false"
     inkscape:zoom="3.9861856"
     inkscape:cx="94.702063"
     inkscape:cy="101.97719"
     inkscape:window-width="1844"
     inkscape:window-height="785"
     inkscape:window-x="0"
     inkscape:window-y="210"
     inkscape:window-maximized="0"
     inkscape:current-layer="g54"
     width="793.70081px"
     borderlayer="true" />
  <desc
     id="desc9">Draw1-.dxf - scale = 1.0, origin = (0.0, 0.0), method = manual</desc>
  <defs
     id="defs24">
    <marker
       id="DistanceX"
       orient="auto"
       refX="0"
       refY="0"
       style="overflow:visible">
      <path
         d="M 3,-3 -3,3 M 0,-5 V 5"
         style="stroke:#000000;stroke-width:0.5"
         id="path11" />
    </marker>
    <pattern
       id="Hatch"
       patternUnits="userSpaceOnUse"
       width="8"
       height="8"
       x="0"
       y="0">
      <path
         d="M8 4 l-4,4"
         stroke="#000000"
         stroke-width="0.25"
         linecap="square"
         id="path14" />
      <path
         d="M6 2 l-4,4"
         stroke="#000000"
         stroke-width="0.25"
         linecap="square"
         id="path16" />
      <path
         d="M4 0 l-4,4"
         stroke="#000000"
         stroke-width="0.25"
         linecap="square"
         id="path18" />
    </pattern>
    <symbol
       id="*Model_Space" />
    <symbol
       id="*Paper_Space" />
    <symbol
       id="*Paper_Space0" />
  </defs>
  <g
     inkscape:groupmode="layer"
     inkscape:label="0"
     id="g54">
    <path
       d="M 199.16324,100.03838 198.04039,85.157783 194.69723,70.614178 189.20949,56.73693 181.70146,43.840322 172.34314,32.21642 161.3465,22.128463 148.96056,13.804906 135.46582,7.4342557 121.16789,3.1607877 106.39057,1.0812826 91.468549,1.2428213 76.739728,3.6417677 62.537675,8.2237737 49.184023,14.885087 36.981178,23.474839 26.205512,33.79851 17.101044,45.622294 9.8739638,58.678419 4.6879528,72.671218 1.6604358,87.283793 0.85999769,102.18522 l 1.44476001,14.8528 3.6572351,14.46783 5.7868762,13.75517 7.785489,12.73105 9.607776,11.41857 11.212466,9.84753 12.56324,8.05347 13.629495,6.07699 14.387092,3.96292 14.818861,1.7591 14.915042,-0.48456 14.67343,-2.71726 14.09953,-4.88839 13.20631,-6.94886 12.01401,-8.85191 10.54965,-10.55455 8.84635,-12.01812 6.94272,-13.20953 4.88188,-14.10179 2.71045,-14.67468 z m -166.386606,56.37842 -8.130028,-11.44097 -6.201593,-12.59099 -4.114448,-13.41882 -1.922018,-13.90319 0.319601,-14.031778 2.553051,-13.801271 4.72115,-13.21756 6.768439,-12.295582 8.642509,-11.058935 10.295394,-9.539285 6.982954,-4.967973 10.260769,-0.731552 10.175522,1.509041 9.606833,3.677929 8.581711,5.672093 7.148878,7.396767 5.376392,8.770001 3.34844,9.726572 1.16145,10.221029 -1.08075,10.229881 -0.41358,1.739596 5.12002,3.456865 3.55874,5.049734 1.53357,5.98437 -0.12925,3.594218 4.62066,-11.00408 2.47924,-11.674492 0.25014,-11.932207 -1.98778,-11.768141 -4.15542,-11.188052 -6.17621,-10.212485 -7.97862,-8.875904 -9.499022,-7.225567 -9.706836,-4.934037 13.973176,-1.320315 14.004942,0.924761 13.67824,3.146183 13.00153,5.287085 11.99209,7.292677 10.67571,9.111638 9.08616,10.697412 7.26408,12.009428 5.25607,13.014105 3.11356,13.685715 0.81092,8.531408 -4.49683,9.251858 -6.39465,8.05774 -7.9886,6.48079 -9.20303,4.59594 -9.98022,2.49272 -10.28323,0.27108 -10.09768,-1.96343 -9.43241,-4.10468 -8.31896,-6.0509 -1.29974,-1.22796 -5.55375,2.70563 -6.152572,0.55709 -5.949387,-1.66408 -3.048052,-1.90903 7.219469,9.50365 8.870782,7.98433 10.20853,6.18273 11.18539,4.16261 11.76687,1.99532 11.93236,-0.2425 11.67608,-2.47176 11.00703,-4.6136 9.12643,-5.93934 -5.84318,12.76128 -7.80332,11.66624 -9.56381,10.27262 -11.07952,8.61612 -12.31168,6.73911 -13.22876,4.68962 -13.80732,2.52014 -14.032502,0.28616 -13.898581,-1.95516 -13.408955,-4.14644 -7.793877,-3.56343 -5.763923,-8.5203 -3.78089,-9.56679 -1.618234,-10.15873 0.621316,-10.26802 2.831348,-9.88949 4.906852,-9.04109 6.749233,-7.76313 8.270953,-6.11635 9.399709,-4.17898 1.713319,-0.51164 0.433724,-6.162498 2.593835,-5.606821 4.415827,-4.320289 3.177304,-1.685176 -11.840147,1.500417 -11.350016,3.690169 -10.458675,5.74947 -9.19761,7.605538 -7.611431,9.19274 -5.756176,10.45498 -3.697438,11.34764 -1.508007,11.83918 z"
       style="fill:#768c7d;stroke-width:0.37189;stroke:#dddddd;stroke-opacity:1;fill-opacity:1"
       id="path26" />
    <path
       d="m 199.16324,100.03838 a 99.163249,99.163249 0 1 0 -198.32648311,0 99.163249,99.163249 0 1 0 198.32648311,0 z"
       style="fill:none;stroke:#dddddd;stroke-width:1.6735;stroke-linecap:round;stroke-opacity:1"
       id="path28" />
    <path
       d="M 59.665345,177.95259 A 87.735446,87.735446 0 0 0 182.43685,130.06633"
       style="fill:none;stroke:#dddddd;stroke-width:1.6735;stroke-linecap:round;stroke-opacity:1"
       id="path30" />
    <path
       d="m 89.443909,113.50489 a 17.110756,17.110756 0 0 0 20.703761,0.31039"
       style="fill:none;stroke:#dddddd;stroke-width:1.6735;stroke-linecap:round;stroke-opacity:1"
       id="path32" />
    <path
       d="M 93.615718,84.163286 A 63.478004,63.478004 0 0 0 32.776634,156.4168"
       style="fill:none;stroke:#dddddd;stroke-width:1.6735;stroke-linecap:round;stroke-opacity:1"
       id="path34" />
    <path
       d="M 82.995028,101.93807 A 47.193757,47.193757 0 0 0 59.665345,177.95259"
       style="fill:none;stroke:#dddddd;stroke-width:1.6735;stroke-linecap:round;stroke-opacity:1"
       id="path36" />
    <path
       d="M 106.85731,84.361803 A 47.193757,47.193757 0 0 0 52.691645,26.150446"
       style="fill:none;stroke:#dddddd;stroke-width:1.6735;stroke-linecap:round;stroke-opacity:1"
       id="path38" />
    <path
       d="M 116.94039,102.44699 A 63.478004,63.478004 0 0 0 84.786542,13.632025"
       style="fill:none;stroke:#dddddd;stroke-width:1.6735;stroke-linecap:round;stroke-opacity:1"
       id="path40" />
    <path
       d="M 110.14767,113.81528 A 47.193757,47.193757 0 0 0 187.64302,96.012122"
       style="fill:none;stroke:#dddddd;stroke-width:1.6735;stroke-linecap:round;stroke-opacity:1"
       id="path42" />
    <path
       d="m 89.443909,113.50489 a 63.478004,63.478004 0 0 0 92.992941,16.56144"
       style="fill:none;stroke:#dddddd;stroke-width:1.6735;stroke-linecap:round;stroke-opacity:1"
       id="path44" />
    <path
       d="M 116.94039,102.44699 A 17.110756,17.110756 0 0 0 106.85731,84.361803"
       style="fill:none;stroke:#dddddd;stroke-width:1.6735;stroke-linecap:round;stroke-opacity:1"
       id="path46" />
    <path
       d="M 93.615718,84.163286 A 17.110756,17.110756 0 0 0 82.995028,101.93807"
       style="fill:none;stroke:#dddddd;stroke-width:1.6735;stroke-linecap:round;stroke-opacity:1"
       id="path48" />
    <path
       d="M 187.64302,96.012122 A 87.735446,87.735446 0 0 0 84.786542,13.632025"
       style="fill:none;stroke:#dddddd;stroke-width:1.6735;stroke-linecap:round;stroke-opacity:1"
       id="path50" />
    <path
       d="M 52.691645,26.150446 A 87.735446,87.735446 0 0 0 32.776634,156.4168"
       style="fill:none;stroke:#dddddd;stroke-width:1.6735;stroke-linecap:round;stroke-opacity:1"
       id="path52" />
  </g>
  <g
     inkscape:groupmode="layer"
     inkscape:label="0 (1)"
     id="g56" />
</svg>
